<svg aria-hidden="true" style="position:absolute;width:0;height:0" xmlns="http://www.w3.org/2000/svg" overflow="hidden"><defs><symbol id="icon-close" viewBox="0 0 32 32"><path d="M26.667 7.303l-1.97-1.97-7.808 7.808-7.808-7.808-1.97 1.97 7.808 7.808-7.808 7.808 1.97 1.97 7.808-7.808 7.808 7.808 1.97-1.97-7.808-7.808 7.808-7.808z"/></symbol><symbol id="icon-client-1" viewBox="0 0 32 32"><path d="M5.44 0l4.677 4.428h13.046v12.351l4.677 4.428V.001H5.44z"/><path d="M1.6 4.241v20.6h21.76v-8.188L10.255 4.247 1.6 4.242zm17.615 17.587H5.043V7.974h1.002V20.89h13.17v.938zM7.866 28.662l.523-1.078h.438l-.762 1.438v.837h-.397v-.837l-.764-1.438h.439l.523 1.078zm2.247.667h-.881l-.184.53h-.411l.859-2.275h.355l.861 2.275H10.3l-.186-.53zm-.77-.319h.659l-.33-.944-.33.944zm2.328.234c0-.105.029-.202.086-.289.057-.089.17-.193.339-.314-.088-.111-.151-.206-.186-.284s-.052-.154-.052-.227c0-.178.054-.319.162-.422s.254-.156.438-.156a.57.57 0 01.406.147.47.47 0 01.159.361.5.5 0 01-.072.262.879.879 0 01-.236.238l-.155.113.439.519a.9.9 0 00.095-.417h.33c0 .28-.066.51-.197.689l.334.395h-.441l-.128-.152c-.162.122-.356.183-.581.183s-.405-.059-.541-.178a.599.599 0 01-.202-.467zm.753.343a.58.58 0 00.359-.128l-.497-.586-.048.034c-.125.095-.188.203-.188.325 0 .105.034.191.102.256s.158.098.272.098zm-.209-1.466c0 .087.054.197.161.33l.173-.119.048-.039a.28.28 0 00.097-.22.2.2 0 00-.067-.152.236.236 0 00-.17-.064c-.074 0-.133.025-.177.075s-.066.113-.066.189zm4.133.997a.827.827 0 01-.269.569c-.156.135-.364.203-.623.203a.902.902 0 01-.48-.128c-.137-.086-.244-.209-.319-.367s-.114-.342-.117-.552v-.212c0-.215.038-.404.114-.567a.86.86 0 01.821-.511c.251 0 .453.068.606.205s.242.329.267.578h-.394c-.019-.164-.067-.281-.144-.353-.076-.073-.188-.109-.336-.109a.464.464 0 00-.397.189c-.092.125-.139.309-.141.552v.202c0 .246.044.433.131.563s.218.194.387.194c.155 0 .272-.035.35-.105s.128-.186.148-.348h.394zm2.17-.338c0 .223-.039.419-.116.588a.884.884 0 01-.331.388.905.905 0 01-.494.134.926.926 0 01-.494-.134.896.896 0 01-.334-.386 1.362 1.362 0 01-.119-.576v-.128c0-.222.039-.418.117-.588a.887.887 0 01.333-.389c.144-.091.308-.136.494-.136s.349.045.492.134c.144.088.255.217.333.384s.118.361.119.583v.127zm-.396-.118c0-.252-.048-.445-.144-.58a.468.468 0 00-.405-.202.467.467 0 00-.402.202c-.096.133-.145.322-.147.567v.131c0 .25.048.443.145.58a.473.473 0 00.406.205.464.464 0 00.403-.2c.095-.133.142-.328.142-.584v-.119z"/></symbol><symbol id="icon-client-2" viewBox="0 0 32 32"><path d="M14.14 1.806h.084c.156 0 .324.016.49.03.734.052 1.463.162 2.179.329V.403a12.974 12.974 0 00-2.249-.358 18.11 18.11 0 00-.909-.044h-.263a18.35 18.35 0 00-4.515.582 18.3 18.3 0 00-4.79 1.948v17.475a19.484 19.484 0 014.566-1.779 19.948 19.948 0 013.833-.588h.051c.216-.011.433-.017.655-.019v-1.79a21.155 21.155 0 00-4.982.662 23.81 23.81 0 00-1.731.513l-.623.211V3.591l.266-.128a17.409 17.409 0 016.471-1.651.523.523 0 01.056 0c.248-.013.497-.019.741-.019h.28c.129.003.258.006.388.014z"/><path d="M18.53 3.651a15.823 15.823 0 01-2.606-.211c-.277-.047-.55-.103-.814-.164v17.275a13.82 13.82 0 003.425.404 18.396 18.396 0 004.515-.581 18.362 18.362 0 004.792-1.948V1.263a19.58 19.58 0 01-4.564 1.781 19.388 19.388 0 01-4.747.609zm6.907.299l.623-.21v13.63l-.266.128a17.055 17.055 0 01-3.184 1.144c-1.331.344-2.7.522-4.074.527-.411 0-.819-.017-1.214-.052l-.427-.038V5.062l.497.033c.361.023.735.034 1.141.034a21.092 21.092 0 005.173-.663 26.802 26.802 0 001.731-.518zM5.377 25.977a.912.912 0 00-.693-.28 1.034 1.034 0 00-.4.075.91.91 0 00-.512.518 1.023 1.023 0 00-.072.387v2.335c-.006.165.026.328.092.479.055.12.135.226.234.313a.815.815 0 00.321.166c.114.032.231.048.349.049a.972.972 0 00.892-.61.951.951 0 00.075-.372v-.261h-.61v.208a.528.528 0 01-.036.208.359.359 0 01-.089.131.365.365 0 01-.128.067.425.425 0 01-.128.022.314.314 0 01-.286-.125.548.548 0 01-.081-.313v-2.177a.738.738 0 01.075-.349.31.31 0 01.299-.141.33.33 0 01.272.131c.068.09.104.2.101.313v.202h.604v-.238a1.093 1.093 0 00-.279-.737zM9.002 25.95a1.051 1.051 0 00-1.38 0 .961.961 0 00-.237.327 1.099 1.099 0 00-.089.452v2.239a1.08 1.08 0 00.089.459c.055.12.136.227.237.313a.94.94 0 00.322.197 1.028 1.028 0 00.728 0c.121-.044.233-.111.33-.197a.948.948 0 00.23-.313 1.08 1.08 0 00.089-.459v-2.239a1.08 1.08 0 00-.089-.452 1.015 1.015 0 00-.23-.327zm-.284 3.019a.405.405 0 01-.121.324.445.445 0 01-.574 0 .397.397 0 01-.121-.324V26.73a.405.405 0 01.121-.324.445.445 0 01.574 0 .397.397 0 01.121.324v2.239zM13.764 29.969V25.73h-.587l-.771 2.244h-.011l-.777-2.244h-.581v4.239h.606V27.39h.011l.593 1.823h.302l.598-1.823h.011v2.579h.606zM17.205 26.027a.84.84 0 00-.343-.232 1.363 1.363 0 00-.439-.066h-.9v4.239h.604v-1.656h.311c.189.009.376-.031.545-.116a.882.882 0 00.332-.324 1.02 1.02 0 00.139-.369c.024-.16.035-.321.033-.482a2.421 2.421 0 00-.059-.606.898.898 0 00-.223-.39zm-.311 1.292a.547.547 0 01-.056.221.346.346 0 01-.156.149.619.619 0 01-.285.053h-.276v-1.441h.311a.578.578 0 01.272.053.349.349 0 01.142.157.62.62 0 01.053.236v.282c0 .099.006.2 0 .291h-.006zM20.066 25.73h-.495l-.934 4.239h.604l.177-.911h.823l.177.911h.604l-.957-4.239zm-.557 2.751l.297-1.537h.011l.296 1.537h-.604zM23.969 28.284h-.011l-.912-2.554h-.581v4.239h.604V27.42h.012l.923 2.549h.568V25.73h-.604v2.554zM27.66 25.73l-.486 1.685h-.012l-.486-1.685h-.64l.83 2.447v1.792h.604v-1.792l.83-2.447h-.64zM3.692 31.166h.291v.817h.198v-.817h.29v-.167h-.778v.167zM6.14 30.998l-.381.984h.21l.081-.224h.392l.084.224h.215l-.391-.984h-.21zm-.032.595l.134-.365.134.365h-.268zM8.559 31.62h.227v.127a.38.38 0 01-.233.083.244.244 0 01-.209-.093.411.411 0 01-.073-.257c0-.219.095-.329.283-.329a.206.206 0 01.222.157l.195-.038c-.042-.192-.181-.289-.417-.289a.495.495 0 00-.344.127.494.494 0 00-.141.379.532.532 0 00.126.369.477.477 0 00.374.144.59.59 0 00.417-.157v-.388h-.427v.166zM11.029 30.998h-.199v.984h.69v-.167h-.49v-.817zM13.118 30.998h-.199v.984h.199v-.984zM15.161 31.656l-.403-.657h-.193v.984h.185v-.643l.395.643h.198v-.984h-.182v.657zM17.007 31.549h.49v-.167h-.49v-.216h.528v-.167h-.727v.984h.747v-.167h-.548v-.266zM21.484 31.387h-.388v-.388h-.198v.984h.198v-.43h.388v.43h.198v-.984h-.198v.388zM23.342 31.549h.492v-.167h-.492v-.216h.529v-.167h-.727v.984h.746v-.167h-.548v-.266zM25.86 31.549c.171-.027.258-.117.258-.274a.236.236 0 00-.096-.219.553.553 0 00-.288-.058h-.417v.984h.198v-.412h.039a.261.261 0 01.123.022.21.21 0 01.07.072l.215.313h.237l-.12-.192a.685.685 0 00-.218-.236zm-.199-.136h-.146v-.247h.156a.526.526 0 01.201.023c.014.013.026.029.033.046a.133.133 0 01-.005.111.128.128 0 01-.037.043.547.547 0 01-.201.023zM27.76 31.549h.49v-.167h-.49v-.216h.529v-.167h-.729v.984h.747v-.167h-.548v-.266z"/></symbol><symbol id="icon-client-3" viewBox="0 0 32 32"><path d="M5.466 31.103a.088.088 0 01.059.025l.153.161c-.119.13-.266.234-.431.305a1.532 1.532 0 01-.611.109 1.496 1.496 0 01-.574-.102 1.25 1.25 0 01-.712-.733 1.618 1.618 0 01-.098-.571c-.003-.195.033-.39.105-.573.067-.166.168-.317.297-.445.131-.126.287-.224.459-.29.189-.07.389-.104.591-.102.188-.004.375.027.549.093.152.063.291.15.412.257l-.128.171a.122.122 0 01-.033.031.084.084 0 01-.052.013.123.123 0 01-.056-.018l-.069-.046-.096-.058a.978.978 0 00-.302-.103 1.238 1.238 0 00-.228-.018 1.12 1.12 0 00-.425.077.96.96 0 00-.333.215.997.997 0 00-.216.343c-.054.145-.08.298-.078.452-.002.156.024.312.078.46.047.126.119.242.212.341a.863.863 0 00.318.212c.125.049.259.074.394.073.078.001.156-.004.234-.015a.87.87 0 00.354-.122c.054-.034.104-.072.151-.113a.115.115 0 01.073-.029zM9.888 30.296c.002.194-.033.386-.103.567-.062.165-.161.315-.288.44s-.282.224-.452.289a1.711 1.711 0 01-1.164 0 1.281 1.281 0 01-.741-.735 1.61 1.61 0 010-1.136c.065-.166.164-.317.291-.447.128-.121.281-.216.45-.279.374-.139.79-.139 1.164 0 .17.066.324.165.452.29.126.127.224.276.289.44.071.183.106.376.103.571zm-.402 0a1.313 1.313 0 00-.073-.456.898.898 0 00-.528-.556 1.23 1.23 0 00-.846 0 .901.901 0 00-.531.556 1.465 1.465 0 000 .912.888.888 0 00.531.554c.273.097.573.097.846 0a.884.884 0 00.528-.554c.051-.147.076-.301.073-.456zM12.905 30.774l.04.102a3.46 3.46 0 01.044-.102.933.933 0 01.05-.1l.978-1.694c.019-.029.036-.047.056-.053a.217.217 0 01.08-.009h.289v2.755h-.343v-2.026-.086a.753.753 0 010-.095l-.984 1.718c-.012.026-.033.047-.058.063s-.054.023-.084.023h-.056a.154.154 0 01-.141-.086l-1.013-1.729V31.668h-.331v-2.75h.289a.24.24 0 01.08.009c.024.011.043.03.054.053l.999 1.696c.02.031.036.064.05.098zM16.586 30.638v1.032h-.383v-2.752h.854a1.67 1.67 0 01.477.06.912.912 0 01.337.171.699.699 0 01.191.27.905.905 0 01.065.352.84.84 0 01-.071.352.744.744 0 01-.207.275.936.936 0 01-.339.182 1.498 1.498 0 01-.461.064l-.463-.007zm0-.296h.463a.992.992 0 00.297-.042.617.617 0 00.214-.119.477.477 0 00.13-.182.579.579 0 00.046-.232.522.522 0 00-.172-.412.766.766 0 00-.515-.148h-.463v1.134zM21.731 31.673h-.302a.133.133 0 01-.084-.026.164.164 0 01-.05-.064l-.26-.666h-1.307l-.27.666a.145.145 0 01-.048.062.132.132 0 01-.086.027h-.302l1.148-2.756h.398l1.164 2.756zm-1.895-1.023h1.08l-.456-1.122a1.828 1.828 0 01-.086-.259l-.044.144c-.013.044-.029.084-.042.117l-.452 1.12zM23.385 28.931a.16.16 0 01.057.049l1.675 2.077v-.097V28.918h.343v2.756h-.191a.173.173 0 01-.078-.016.2.2 0 01-.061-.051l-1.673-2.075a.753.753 0 010 .095v2.048h-.343v-2.756h.203a.163.163 0 01.069.013zM28.281 30.577v1.094h-.383v-1.094l-1.059-1.66h.343a.126.126 0 01.082.024.256.256 0 01.052.062l.662 1.071a1.256 1.256 0 01.117.245l.05-.119c.019-.043.04-.085.065-.126l.653-1.078a.274.274 0 01.05-.058.116.116 0 01.082-.027h.346l-1.06 1.667zM12.715 24.293c.167.02.335.036.505.051 2.583-1.101 4.768-2.902 6.282-5.18s2.29-4.929 2.231-7.624l-2.846-2.712c.579 2.869.308 5.836-.782 8.567s-2.956 5.12-5.389 6.898z"/><path d="M11.699 24.167l.077.015c2.6-1.772 4.583-4.247 5.691-7.104s1.292-5.965.526-8.922l-4.054-3.862c1.64 3.175 2.3 6.728 1.903 10.246s-1.833 6.857-4.143 9.628zM25.448 14.725c-.689 2.961-2.362 5.632-4.77 7.616a15.094 15.094 0 01-2.266 1.55c1.961-.549 3.764-1.52 5.269-2.838s2.672-2.947 3.412-4.763l-1.644-1.565z"/><path d="M24.803 14.289l-2.341-2.23c-.045 2.543-.803 5.028-2.197 7.197s-3.372 3.943-5.729 5.137h.011a14 14 0 001.572-.089c2.203-.857 4.148-2.219 5.664-3.967s2.553-3.825 3.021-6.047zM12.038 2.664L9.245 0C6.748.919 4.601 2.535 3.084 4.636S.752 9.225.744 11.775c.009 2.818 1.005 5.552 2.829 7.77s4.372 3.793 7.242 4.476c2.561-2.973 4.061-6.647 4.281-10.488s-.851-7.648-3.058-10.869zM31.256 13.878c-.01-3.343-1.409-6.546-3.89-8.91s-5.843-3.696-9.352-3.706a13.655 13.655 0 00-4.741.841l17.099 16.291c.585-1.44.885-2.971.884-4.515z"/></symbol><symbol id="icon-client-4" viewBox="0 0 80 43" xmlns="http://www.w3.org/2000/svg">
<path d="M12.402 12.8306H12.3992C10.1369 12.8306 8.30298 14.6177 8.30298 16.8223V16.8249C8.30298 19.0295 10.1369 20.8167 12.3992 20.8167H12.402C14.6643 20.8167 16.4982 19.0295 16.4982 16.8249V16.8223C16.4982 14.6177 14.6643 12.8306 12.402 12.8306Z"/><path d="M42.6368 11.5545C42.6304 8.49242 41.3795 5.55752 39.1579 3.39207C36.9363 1.22661 33.9249 0.00695286 30.7827 0V0C27.6396 0.00556265 24.6269 1.22461 22.4041 3.39022C20.1813 5.55582 18.9297 8.49151 18.9233 11.5545V28.4402C18.9233 28.4402 42.6341 25.8667 42.6368 11.5571V11.5545Z"/><path d="M-6.10352e-05 33.9823C0.005638 36.1129 0.876495 38.1547 2.42221 39.6615C3.96793 41.1683 6.06284 42.0177 8.24917 42.0239C10.435 42.0177 12.5295 41.1687 14.0752 39.6625C15.6208 38.1562 16.492 36.1151 16.4984 33.9849V22.2356C16.4984 22.2356 -6.10352e-05 24.0276 -6.10352e-05 33.9823ZM8.24917 36.0874C7.82192 36.0874 7.40427 35.964 7.04903 35.7326C6.69379 35.5013 6.41691 35.1726 6.25341 34.7879C6.08991 34.4032 6.04713 33.98 6.13048 33.5716C6.21384 33.1632 6.41957 32.7881 6.72168 32.4937C7.02379 32.1993 7.4087 31.9988 7.82773 31.9176C8.24677 31.8364 8.68111 31.8781 9.07584 32.0374C9.47056 32.1967 9.80793 32.4665 10.0453 32.8127C10.2827 33.1589 10.4094 33.5659 10.4094 33.9823C10.4104 34.2594 10.3553 34.534 10.2473 34.7903C10.1392 35.0466 9.98022 35.2796 9.77952 35.476C9.57882 35.6723 9.34033 35.828 9.07771 35.9343C8.81509 36.0406 8.53353 36.0953 8.24917 36.0953V36.0874Z"/><path d="M25.0891 34.7812H23.4016V36.5244H22.5227V32.2588H25.3V32.9707H23.4016V34.0723H25.0891V34.7812ZM29.3137 34.4883C29.3137 34.9082 29.2395 35.2764 29.0911 35.5928C28.9426 35.9092 28.7297 36.1533 28.4524 36.3252C28.177 36.4971 27.8606 36.583 27.5032 36.583C27.1497 36.583 26.8342 36.498 26.5569 36.3281C26.2795 36.1582 26.0647 35.916 25.9124 35.6016C25.76 35.2852 25.6829 34.9219 25.6809 34.5117V34.3008C25.6809 33.8809 25.7561 33.5117 25.9065 33.1934C26.0588 32.873 26.2727 32.6279 26.5481 32.458C26.8254 32.2861 27.1418 32.2002 27.4973 32.2002C27.8528 32.2002 28.1682 32.2861 28.4436 32.458C28.7209 32.6279 28.9348 32.873 29.0852 33.1934C29.2375 33.5117 29.3137 33.8799 29.3137 34.2979V34.4883ZM28.4231 34.2949C28.4231 33.8477 28.343 33.5078 28.1829 33.2754C28.0227 33.043 27.7942 32.9268 27.4973 32.9268C27.2024 32.9268 26.9749 33.042 26.8147 33.2725C26.6545 33.501 26.5735 33.8369 26.5715 34.2803V34.4883C26.5715 34.9238 26.6516 35.2617 26.8118 35.502C26.9719 35.7422 27.2024 35.8623 27.5032 35.8623C27.7981 35.8623 28.0247 35.7471 28.1829 35.5166C28.3411 35.2842 28.4211 34.9463 28.4231 34.5029V34.2949ZM32.1643 35.4053C32.1643 35.2393 32.1057 35.1123 31.9885 35.0244C31.8713 34.9346 31.6604 34.8408 31.3557 34.7432C31.051 34.6436 30.8098 34.5459 30.6321 34.4502C30.1477 34.1885 29.9055 33.8359 29.9055 33.3926C29.9055 33.1621 29.97 32.957 30.0989 32.7773C30.2297 32.5957 30.4163 32.4541 30.6584 32.3525C30.9026 32.251 31.176 32.2002 31.4788 32.2002C31.7834 32.2002 32.0549 32.2559 32.2932 32.3672C32.5315 32.4766 32.7161 32.6318 32.8469 32.833C32.9797 33.0342 33.0461 33.2627 33.0461 33.5186H32.1672C32.1672 33.3232 32.1057 33.1719 31.9827 33.0645C31.8596 32.9551 31.6868 32.9004 31.4641 32.9004C31.2493 32.9004 31.0823 32.9463 30.9631 33.0381C30.844 33.1279 30.7844 33.2471 30.7844 33.3955C30.7844 33.5342 30.8538 33.6504 30.9924 33.7441C31.1331 33.8379 31.3391 33.9258 31.6106 34.0078C32.1106 34.1582 32.4749 34.3447 32.7034 34.5674C32.9319 34.79 33.0461 35.0674 33.0461 35.3994C33.0461 35.7686 32.9065 36.0586 32.6272 36.2695C32.3479 36.4785 31.9719 36.583 31.4993 36.583C31.1711 36.583 30.8723 36.5234 30.6028 36.4043C30.3333 36.2832 30.1272 36.1182 29.9846 35.9092C29.844 35.7002 29.7737 35.458 29.7737 35.1826H30.6555C30.6555 35.6533 30.9368 35.8887 31.4993 35.8887C31.7083 35.8887 31.8713 35.8467 31.9885 35.7627C32.1057 35.6768 32.1643 35.5576 32.1643 35.4053ZM36.8547 32.9707H35.5481V36.5244H34.6692V32.9707H33.3801V32.2588H36.8547V32.9707ZM39.925 34.6758H38.2375V35.8184H40.218V36.5244H37.3586V32.2588H40.2122V32.9707H38.2375V33.9873H39.925V34.6758ZM42.3127 34.9629H41.6125V36.5244H40.7336V32.2588H42.3186C42.8225 32.2588 43.2112 32.3711 43.4846 32.5957C43.7581 32.8203 43.8948 33.1377 43.8948 33.5479C43.8948 33.8389 43.8313 34.082 43.7043 34.2773C43.5793 34.4707 43.3889 34.625 43.1331 34.7402L44.0559 36.4834V36.5244H43.1125L42.3127 34.9629ZM41.6125 34.251H42.3215C42.5422 34.251 42.7131 34.1953 42.8342 34.084C42.9553 33.9707 43.0159 33.8154 43.0159 33.6182C43.0159 33.417 42.9583 33.2588 42.843 33.1436C42.7297 33.0283 42.5549 32.9707 42.3186 32.9707H41.6125V34.251ZM46.9387 35.0215V36.5244H46.0598V32.2588H47.7239C48.0442 32.2588 48.3254 32.3174 48.5676 32.4346C48.8118 32.5518 48.9993 32.7188 49.1301 32.9355C49.261 33.1504 49.3264 33.3955 49.3264 33.6709C49.3264 34.0889 49.1829 34.4189 48.8958 34.6611C48.6106 34.9014 48.2151 35.0215 47.7092 35.0215H46.9387ZM46.9387 34.3096H47.7239C47.9563 34.3096 48.1331 34.2549 48.2542 34.1455C48.3772 34.0361 48.4387 33.8799 48.4387 33.6768C48.4387 33.4678 48.3772 33.2988 48.2542 33.1699C48.1311 33.041 47.9612 32.9746 47.7444 32.9707H46.9387V34.3096ZM52.4993 34.6758H50.8118V35.8184H52.7922V36.5244H49.9329V32.2588H52.7864V32.9707H50.8118V33.9873H52.4993V34.6758ZM56.5774 32.9707H55.2708V36.5244H54.3918V32.9707H53.1028V32.2588H56.5774V32.9707ZM59.6477 34.6758H57.9602V35.8184H59.9407V36.5244H57.0813V32.2588H59.9348V32.9707H57.9602V33.9873H59.6477V34.6758ZM62.0354 34.9629H61.3352V36.5244H60.4563V32.2588H62.0413C62.5452 32.2588 62.9338 32.3711 63.2073 32.5957C63.4807 32.8203 63.6174 33.1377 63.6174 33.5479C63.6174 33.8389 63.554 34.082 63.427 34.2773C63.302 34.4707 63.1116 34.625 62.8557 34.7402L63.7786 36.4834V36.5244H62.8352L62.0354 34.9629ZM61.3352 34.251H62.0442C62.2649 34.251 62.4358 34.1953 62.5569 34.084C62.678 33.9707 62.7385 33.8154 62.7385 33.6182C62.7385 33.417 62.6809 33.2588 62.5657 33.1436C62.4524 33.0283 62.2776 32.9707 62.0413 32.9707H61.3352V34.251ZM66.5002 35.4053C66.5002 35.2393 66.4417 35.1123 66.3245 35.0244C66.2073 34.9346 65.9963 34.8408 65.6917 34.7432C65.387 34.6436 65.1458 34.5459 64.968 34.4502C64.4836 34.1885 64.2415 33.8359 64.2415 33.3926C64.2415 33.1621 64.3059 32.957 64.4348 32.7773C64.5657 32.5957 64.7522 32.4541 64.9944 32.3525C65.2385 32.251 65.512 32.2002 65.8147 32.2002C66.1194 32.2002 66.3909 32.2559 66.6292 32.3672C66.8674 32.4766 67.052 32.6318 67.1829 32.833C67.3157 33.0342 67.3821 33.2627 67.3821 33.5186H66.5032C66.5032 33.3232 66.4417 33.1719 66.3186 33.0645C66.1956 32.9551 66.0227 32.9004 65.8 32.9004C65.5852 32.9004 65.4182 32.9463 65.2991 33.0381C65.1799 33.1279 65.1204 33.2471 65.1204 33.3955C65.1204 33.5342 65.1897 33.6504 65.3284 33.7441C65.469 33.8379 65.675 33.9258 65.9465 34.0078C66.4465 34.1582 66.8108 34.3447 67.0393 34.5674C67.2678 34.79 67.3821 35.0674 67.3821 35.3994C67.3821 35.7686 67.2424 36.0586 66.9631 36.2695C66.6838 36.4785 66.3079 36.583 65.8352 36.583C65.5071 36.583 65.2083 36.5234 64.9387 36.4043C64.6692 36.2832 64.4631 36.1182 64.3206 35.9092C64.1799 35.7002 64.1096 35.458 64.1096 35.1826H64.9915C64.9915 35.6533 65.2727 35.8887 65.8352 35.8887C66.0442 35.8887 66.2073 35.8467 66.3245 35.7627C66.4417 35.6768 66.5002 35.5576 66.5002 35.4053Z"/></symbol><symbol id="icon-client-5" viewBox="0 0 32 32"><path d="M2.434 24.557a.852.852 0 01.188.548.862.862 0 01-.291.692 1.258 1.258 0 01-.845.253H0v-3.474h1.455c.287-.019.572.062.806.231a.793.793 0 01.282.65.8.8 0 01-.169.531.784.784 0 01-.443.271.842.842 0 01.502.297zm-1.743-.524h.622a.587.587 0 00.396-.115.41.41 0 00.133-.339.433.433 0 00-.132-.34.6.6 0 00-.407-.117H.691v.911zm1.079 1.332c.05-.044.089-.098.115-.159s.037-.128.032-.194a.44.44 0 00-.151-.357.642.642 0 00-.423-.126H.691v.955h.661a.652.652 0 00.417-.12zM5.409 26.051l-.81-1.358h-.304v1.358h-.696v-3.474h1.318c.332-.023.661.082.918.295a1.113 1.113 0 01.098 1.438 1.07 1.07 0 01-.629.353l.862 1.388h-.757zM4.295 24.22h.57c.396 0 .593-.175.593-.526a.517.517 0 00-.146-.39.618.618 0 00-.448-.141h-.576l.007 1.057zM9.215 25.352H7.827l-.245.699h-.73l1.274-3.435h.789l1.269 3.435h-.73l-.24-.699zm-.186-.526l-.507-1.466-.507 1.466h1.014zM13.98 26.051h-.691l-1.55-2.362v2.362h-.69v-3.474h.69l1.55 2.376v-2.376h.691v3.474zM17.925 25.219a1.501 1.501 0 01-.625.613 2.025 2.025 0 01-.972.219h-1.231v-3.474h1.231c.336-.009.67.065.972.214.265.134.483.345.625.606a2.032 2.032 0 010 1.822zm-.791-.083a1.278 1.278 0 000-1.658 1.196 1.196 0 00-.865-.295h-.48v2.249h.48c.316.02.627-.086.865-.295zM9.648 3.254s8.923 3.382 8.734 8.277v8.278s-8.916-3.384-8.73-8.278l-.003-8.277zM26.331 17.871A12.198 12.198 0 0132 15.773v-2.591a11.639 11.639 0 00-5.669 4.689z"/><path d="M25.318 18.652A12.14 12.14 0 0132 12.639V5.172S19.293 9.99 19.561 16.96v11.786s.566-.215 1.457-.619c0-.377 0-.757.041-1.139a12.261 12.261 0 014.259-8.336z"/><path d="M24.11 23.03c.067-.817.216-1.626.445-2.413a11.41 11.41 0 00-2.691 7.119 36.68 36.68 0 002.444-1.293 12.251 12.251 0 01-.198-3.413zM24.615 23.073a11.682 11.682 0 00.157 3.09c3.472-2.086 7.373-5.308 7.223-9.203v-.339a11.378 11.378 0 00-6.606 3.099 11.679 11.679 0 00-.774 3.353z"/></symbol><symbol id="icon-client-6" viewBox="0 0 89 46" xmlns="http://www.w3.org/2000/svg"><path d="M44.7405 21.3533C44.3226 20.7432 44.1226 20.022 44.1701 19.2962V16.3135C44.1701 15.3992 44.3592 14.7044 44.7373 14.2291C45.1155 13.7537 45.7651 13.517 46.686 13.5191C47.5513 13.5191 48.1656 13.7213 48.5288 14.1259C48.925 14.6421 49.1178 15.2733 49.0736 15.91V16.6109H47.5256V15.9009C47.5311 15.6685 47.5161 15.4361 47.4808 15.2061C47.4585 15.0488 47.3806 14.9033 47.2596 14.7934C47.1007 14.675 46.9004 14.6175 46.6988 14.6326C46.4867 14.6176 46.2764 14.6782 46.1091 14.8025C45.9742 14.9243 45.8844 15.0838 45.8527 15.2576C45.8083 15.5011 45.7879 15.7479 45.7918 15.995V19.6147C45.7674 19.964 45.8357 20.3134 45.9905 20.6312C46.0675 20.7387 46.1744 20.824 46.2994 20.8775C46.4244 20.9311 46.5626 20.9508 46.6988 20.9346C46.8971 20.9501 47.0939 20.8912 47.2468 20.7708C47.373 20.6523 47.4541 20.4976 47.4776 20.3308C47.5137 20.0907 47.5298 19.8482 47.5256 19.6056V18.8714H49.0736V19.5419C49.1171 20.2056 48.929 20.8644 48.5384 21.4171C48.1827 21.86 47.5769 22.0815 46.686 22.0815C45.795 22.0815 45.1219 21.8449 44.7405 21.3533Z"/><path d="M51.1857 21.3837C50.7947 20.9194 50.5992 20.2428 50.5992 19.3477V16.2104C50.5992 15.3244 50.7947 14.6538 51.1857 14.1987C51.5767 13.7436 52.2305 13.517 53.1471 13.5191C54.0573 13.5191 54.7079 13.7456 55.0989 14.1987C55.4899 14.6538 55.6886 15.3244 55.6886 16.2104V19.3477C55.6886 20.2337 55.4899 20.9134 55.0925 21.3806C54.6951 21.8479 54.0477 22.0815 53.1471 22.0815C52.2466 22.0815 51.5799 21.8449 51.1857 21.3837ZM53.8682 20.6312C54.0083 20.3404 54.072 20.0219 54.0541 19.7027V15.8615C54.0721 15.5485 54.0094 15.2361 53.8714 14.9512C53.7929 14.8414 53.6833 14.7547 53.5553 14.7011C53.4272 14.6474 53.2858 14.629 53.1471 14.6478C53.0081 14.6294 52.8664 14.6481 52.7379 14.7017C52.6094 14.7553 52.4992 14.8417 52.4196 14.9512C52.2787 15.2353 52.2148 15.5481 52.2337 15.8615V19.7209C52.2143 20.0402 52.2781 20.3591 52.4196 20.6494C52.5099 20.7473 52.6212 20.8257 52.7461 20.8795C52.8711 20.9332 53.0067 20.961 53.1439 20.961C53.2812 20.961 53.4168 20.9332 53.5417 20.8795C53.6666 20.8257 53.778 20.7473 53.8682 20.6494V20.6312Z"/><path d="M57.5505 13.6106H59.2171L60.4702 19.3992L61.7522 13.6106H63.3739L63.5374 21.9658H62.3387L62.2105 16.159L60.9734 21.9658H60.0119L58.7299 16.1378L58.6114 21.9658H57.3999L57.5505 13.6106Z"/><path d="M65.4059 13.6106H68.0018C69.4974 13.6106 70.2452 14.4014 70.2452 15.9831C70.2452 17.498 69.4579 18.2544 67.8832 18.2524H66.9987V21.9658H65.3962L65.4059 13.6106ZM67.6236 17.1814C67.782 17.2005 67.9428 17.1867 68.0949 17.1411C68.2471 17.0956 68.387 17.0193 68.505 16.9175C68.6887 16.6353 68.7698 16.3039 68.7357 15.974C68.7441 15.7191 68.7183 15.4642 68.6588 15.2155C68.636 15.1324 68.5959 15.0545 68.5408 14.9863C68.4858 14.918 68.417 14.8608 68.3383 14.8181C68.1159 14.7171 67.87 14.6711 67.6236 14.6846H67.0019V17.1814H67.6236Z"/><path d="M72.5561 13.6106H74.2771L76.043 21.9658H74.5495L74.2002 20.0393H72.665L72.3061 21.9658H70.7902L72.5561 13.6106ZM74.0271 19.0715L73.4278 15.5644L72.8285 19.0715H74.0271Z"/><path d="M77.4691 13.6106H78.5909L80.7382 18.3768V13.6106H82.0682V21.9658H81.001L78.8409 16.9903V21.9658H77.4659L77.4691 13.6106Z"/><path d="M85.1834 18.7801L83.3983 13.6223H84.9014L85.9911 16.9354L87.0134 13.6223H88.4845L86.7218 18.7801V21.9658H85.1834V18.7801Z"/><path d="M47.2148 25.6189V26.0558H45.9072V29.4509H45.3592V26.0558H44.0452V25.6189H47.2148Z"/><path d="M51.3138 29.4512H50.8908C50.8478 29.4537 50.8054 29.4407 50.7722 29.4148C50.7402 29.3925 50.7157 29.362 50.7017 29.3268L50.3235 28.4166H48.5095L48.1313 29.3268C48.1206 29.3649 48.1008 29.4001 48.0736 29.43C48.0401 29.4554 47.9979 29.4683 47.955 29.4664H47.532L49.1345 25.6345H49.6921L51.3138 29.4512ZM48.6601 28.0283H50.1729L49.5319 26.4688C49.4846 26.3509 49.445 26.2303 49.4133 26.1078C49.3909 26.1806 49.3716 26.2504 49.3524 26.3111L49.2947 26.4719L48.6601 28.0283Z"/><path d="M54.0765 29.0748C54.1769 29.0798 54.2774 29.0798 54.3778 29.0748C54.4644 29.0664 54.5502 29.0512 54.6342 29.0293C54.7127 29.0111 54.7898 28.9878 54.8649 28.9595C54.9354 28.9322 55.0059 28.8988 55.0797 28.8655V28.0037H54.4387C54.4228 28.0046 54.407 28.0023 54.3921 27.9971C54.3772 27.9919 54.3636 27.9838 54.3521 27.9734C54.3416 27.9648 54.3333 27.954 54.3277 27.9419C54.3222 27.9299 54.3196 27.9167 54.3201 27.9036V27.6093H55.5636V29.0779C55.4621 29.1466 55.3549 29.2075 55.2431 29.2599C55.1288 29.3133 55.0098 29.357 54.8874 29.3904C54.7563 29.4269 54.6223 29.4533 54.4867 29.4693C54.3314 29.4856 54.1752 29.4937 54.0188 29.4936C53.7424 29.4958 53.4682 29.4473 53.2112 29.351C52.9712 29.2596 52.7532 29.1234 52.5702 28.9504C52.3918 28.7757 52.2513 28.5695 52.1568 28.3436C52.0557 28.0896 52.0057 27.8199 52.0093 27.5486C52.006 27.2755 52.0548 27.0041 52.1536 26.7475C52.2457 26.5204 52.3865 26.3138 52.567 26.1406C52.7499 25.9682 52.968 25.833 53.208 25.7431C53.4824 25.6454 53.7737 25.597 54.0669 25.6005C54.2161 25.6003 54.3651 25.6115 54.5124 25.6339C54.6426 25.654 54.7704 25.6865 54.8938 25.731C55.0059 25.7709 55.1133 25.8217 55.2143 25.8827C55.3125 25.9426 55.4057 26.0095 55.4931 26.083L55.3393 26.3197C55.3272 26.3413 55.3093 26.3594 55.2873 26.3722C55.2653 26.3851 55.2401 26.392 55.2143 26.3925C55.1788 26.3914 55.1444 26.3809 55.1149 26.3621C55.0668 26.3379 55.0156 26.3075 54.9579 26.2711C54.8897 26.2307 54.8179 26.1961 54.7431 26.1679C54.6476 26.1317 54.549 26.1032 54.4483 26.083C54.314 26.0596 54.1777 26.0484 54.0413 26.0496C53.8298 26.0474 53.6199 26.0834 53.4227 26.1558C53.2444 26.2235 53.0836 26.3271 52.9516 26.4592C52.8188 26.597 52.7173 26.7592 52.6535 26.9356C52.5103 27.3507 52.5103 27.7981 52.6535 28.2131C52.7237 28.3933 52.8328 28.5576 52.974 28.6955C53.1055 28.827 53.265 28.9304 53.4419 28.999C53.6457 29.0652 53.8617 29.091 54.0765 29.0748Z"/><path d="M59.1851 29.014H60.9351V29.4509H58.6499V25.6189H59.198L59.1851 29.014Z"/><path d="M62.7555 29.4509H62.2074V25.6189H62.7555V29.4509Z"/><path d="M64.7938 25.6371C64.8263 25.6547 64.8547 25.6785 64.8771 25.7069L67.2199 28.5955C67.2167 28.5501 67.2167 28.5045 67.2199 28.459C67.2199 28.4165 67.2199 28.374 67.2199 28.3346V25.6038H67.6974V29.4512H67.4218C67.3809 29.4543 67.34 29.447 67.3032 29.43C67.2699 29.4109 67.2406 29.3862 67.2167 29.3571L64.8771 26.4716C64.8771 26.5171 64.8771 26.5595 64.8771 26.602C64.8771 26.6445 64.8771 26.684 64.8771 26.7204V29.4512H64.4188V25.6189H64.7041C64.735 25.619 64.7656 25.6252 64.7938 25.6371Z"/><path d="M71.7324 25.6189V26.0406H69.7903V27.3059H71.3639V27.7124H69.7903V29.0202H71.7324V29.4419H69.2262V25.6189H71.7324Z"/><path d="M14.3035 1.95391L38.6385 8.49527V31.4173L14.3035 24.879V1.95391ZM12.7427 0V25.9925L40.1961 33.3743V7.38482L12.7427 0Z"/><path d="M27.4565 45.4402L0 38.0522V12.0625L27.4565 19.4474V45.4402Z"/><path d="M13.1978 1.65958L37.2155 8.11891L27.0014 17.7912L2.98057 11.3288L13.1978 1.65958ZM12.7427 0L0 12.0631L27.4565 19.4478L40.196 7.38469L12.7427 0Z"/><path d="M29.0013 43.978L40.196 33.3774L29.0013 30.3647V43.978Z"/></symbol><symbol id="icon-clock-1" viewBox="0 0 32 32"><path fill="var(--color3, #212121)" d="M31.297 15.301C31.295 6.849 24.442-.002 15.989 0S.686 6.855.688 15.308a15.304 15.304 0 0010.649 14.576.662.662 0 00.529-.065.637.637 0 00.283-.356l3.865-12.25a1.912 1.912 0 10-.84-3.635l-5.106-5.107a.637.637 0 00-.902.902l5.103 5.109a1.876 1.876 0 00.536 2.309l-3.683 11.673C3.844 25.783.118 17.71 2.799 10.432S13.553-.572 20.831 2.109s11.004 10.754 8.323 18.032a14.042 14.042 0 01-7.462 7.973l-.398-1.874a.638.638 0 00-1.048-.344l-3.837 3.426a.637.637 0 00.231 1.084l4.899 1.563a.638.638 0 00.819-.74l-.391-1.839a15.255 15.255 0 009.329-14.089zm-15.305-.637a.638.638 0 110 1.277.638.638 0 010-1.277zm2.101 14.864l2.184-1.948.603 2.84-2.787-.892z"/><path fill="var(--color2, #2196f3)" d="M15.354 3.185V4.46a.638.638 0 101.276 0V3.185a.638.638 0 00-1.276 0zM3.876 14.664a.638.638 0 000 1.276h1.275a.638.638 0 100-1.276H3.876zM28.108 15.939a.638.638 0 100-1.276h-1.275a.638.638 0 000 1.276h1.275z"/></symbol><symbol id="icon-diagram-1" viewBox="0 0 32 32"><path fill="var(--color2, #2196f3)" d="M14.926 14.965h1.066v4.798h-1.066v-4.797zM19.19 17.097h1.066v2.665H19.19v-2.665zM10.661 18.696h1.066v1.066h-1.066v-1.066zM7.463 18.163h1.066v1.599H7.463v-1.599z"/><path fill="var(--color3, #212121)" d="M1.599 28.291h25.587a1.6 1.6 0 001.599-1.599V24.56a1.6 1.6 0 00-1.599-1.599h-.533V9.668L29.681 6.8a1.608 1.608 0 10-.746-.763L26.654 8.2V6.97a1.6 1.6 0 00-1.599-1.599H3.733A1.6 1.6 0 002.134 6.97v15.992h-.533a1.6 1.6 0 00-1.599 1.599v2.132a1.6 1.6 0 001.599 1.599zM30.384 4.837a.533.533 0 110 1.067.533.533 0 010-1.067zM3.198 6.969c0-.294.239-.533.533-.533h21.322c.294 0 .533.239.533.533v2.239l-1.066 1.013V8.035a.533.533 0 00-.533-.533H4.797a.533.533 0 00-.533.533v13.326c0 .294.239.533.533.533h19.19a.533.533 0 00.533-.533v-9.674l1.066-1.01v12.284H3.198V6.969zm4.798 6.93a1.598 1.598 0 101.107 2.749l1.853.93a.532.532 0 00.636-.123l3.939-4.431 3.872 2.901a.533.533 0 00.686-.039l3.365-3.188v8.131H5.33V8.569h18.124v2.66l-3.771 3.572-3.904-2.927a.533.533 0 00-.718.072l-3.993 4.493-1.493-.746c.011-.064.018-.129.02-.193a1.6 1.6 0 00-1.599-1.599zm.533 1.599a.533.533 0 11-1.067 0 .533.533 0 011.067 0zm3.198 8.529h5.331v.533a.533.533 0 01-.533.533h-4.264a.533.533 0 01-.533-.533v-.533zm-10.661.533c0-.294.239-.533.533-.533h9.062v.533a1.6 1.6 0 001.599 1.599h4.264a1.6 1.6 0 001.599-1.599v-.533h9.062c.294 0 .533.239.533.533v2.132a.533.533 0 01-.533.533H1.598a.533.533 0 01-.533-.533V24.56z"/></symbol><symbol id="icon-envelope" viewBox="0 0 43 32"><path d="M38.667 0H4C1.794 0 0 1.794 0 4v24c0 2.206 1.794 4 4 4h34.667c2.206 0 4-1.794 4-4V4c0-2.206-1.794-4-4-4zm0 2.667c.181 0 .353.038.511.103L21.334 18.236 3.49 2.77a1.32 1.32 0 01.511-.103h34.667zm0 26.666H4A1.334 1.334 0 012.667 28V5.587L20.46 21.008a1.335 1.335 0 001.748 0L40.001 5.587V28c0 .736-.598 1.333-1.333 1.333z"/></symbol><symbol id="icon-facebook" viewBox="0 0 32 32"><path d="M21.329 5.313h2.921V.225C23.746.156 22.013 0 19.994 0c-4.212 0-7.097 2.649-7.097 7.519V12H8.249v5.688h4.648V32h5.699V17.689h4.46l.708-5.688h-5.169V8.082c.001-1.644.444-2.769 2.735-2.769z"/></symbol><symbol id="icon-instagram" viewBox="0 0 32 32"><path d="M31.969 9.408c-.075-1.7-.35-2.869-.744-3.882a7.806 7.806 0 00-1.851-2.838A7.867 7.867 0 0026.542.844C25.523.45 24.36.175 22.66.1 20.947.019 20.403 0 16.059 0s-4.888.019-6.595.094c-1.7.075-2.869.35-3.882.744a7.803 7.803 0 00-2.838 1.85A7.867 7.867 0 00.9 5.52C.506 6.539.231 7.702.156 9.402c-.081 1.713-.1 2.257-.1 6.601s.019 4.888.094 6.595c.075 1.7.35 2.869.744 3.882a7.895 7.895 0 001.85 2.838 7.867 7.867 0 002.832 1.844c1.019.394 2.182.669 3.882.744 1.706.075 2.25.094 6.595.094s4.888-.019 6.595-.094c1.7-.075 2.869-.35 3.882-.744a8.184 8.184 0 004.682-4.682c.394-1.019.669-2.182.744-3.882.075-1.707.094-2.251.094-6.595s-.006-4.888-.081-6.595zm-2.882 13.065c-.069 1.563-.331 2.407-.55 2.969a5.31 5.31 0 01-3.038 3.038c-.563.219-1.413.481-2.969.55-1.688.075-2.194.094-6.464.094s-4.782-.019-6.464-.094c-1.563-.069-2.407-.331-2.969-.55a4.926 4.926 0 01-1.838-1.194 4.974 4.974 0 01-1.194-1.838c-.219-.563-.481-1.413-.55-2.969-.075-1.688-.094-2.194-.094-6.464s.019-4.782.094-6.464c.069-1.563.331-2.407.55-2.969a4.868 4.868 0 011.2-1.838A4.974 4.974 0 016.639 3.55c.563-.219 1.413-.481 2.969-.55 1.688-.075 2.194-.094 6.464-.094 4.276 0 4.782.019 6.464.094 1.563.069 2.407.331 2.969.55a4.914 4.914 0 011.838 1.194 4.974 4.974 0 011.194 1.838c.219.563.481 1.413.55 2.969.075 1.688.094 2.194.094 6.464s-.019 4.77-.094 6.458z"/><path d="M16.059 7.783c-4.538 0-8.22 3.682-8.22 8.22s3.682 8.22 8.22 8.22 8.22-3.682 8.22-8.22-3.682-8.22-8.22-8.22zm0 13.552a5.333 5.333 0 010-10.664 5.333 5.333 0 010 10.664zM26.524 7.458a1.919 1.919 0 11-3.838 0 1.919 1.919 0 013.838 0z"/></symbol><symbol id="icon-linkedin" viewBox="0 0 32 32"><path d="M31.992 32v-.001H32V20.263c0-5.741-1.236-10.164-7.948-10.164-3.227 0-5.392 1.771-6.276 3.449h-.093v-2.913h-6.364v21.364h6.627V21.42c0-2.785.528-5.479 3.977-5.479 3.399 0 3.449 3.179 3.449 5.657v10.401h6.62zM.528 10.636h6.635V32H.528V10.636zM3.843 0C1.722 0 0 1.721 0 3.843s1.721 3.879 3.843 3.879c2.121 0 3.843-1.757 3.843-3.879A3.846 3.846 0 003.843 0z"/></symbol><symbol id="icon-smartphone" viewBox="0 0 20 32"><path d="M17 0H3C1.346 0 0 1.346 0 3v26c0 1.654 1.346 3 3 3h14c1.654 0 3-1.346 3-3V3c0-1.654-1.346-3-3-3zM3 2h14a1 1 0 011 1v21H2V3a1 1 0 011-1zm14 28H3a1 1 0 01-1-1v-3h16v3a1 1 0 01-1 1z"/><path d="M4.707 27.478c.391.365.391.956 0 1.321s-1.024.365-1.414 0c-.391-.365-.391-.956 0-1.321s1.024-.365 1.414 0z"/></symbol><symbol id="icon-twitter" viewBox="0 0 32 32"><path d="M32 6.078c-1.19.522-2.458.868-3.78 1.036a6.523 6.523 0 002.886-3.626 13.11 13.11 0 01-4.16 1.588A6.574 6.574 0 0022.154 3c-3.632 0-6.556 2.948-6.556 6.562 0 .52.044 1.02.152 1.496-5.454-.266-10.28-2.88-13.522-6.862a6.605 6.605 0 00-.898 3.316 6.57 6.57 0 002.914 5.452 6.479 6.479 0 01-2.964-.808v.072c0 3.188 2.274 5.836 5.256 6.446a6.548 6.548 0 01-1.72.216 5.8 5.8 0 01-1.242-.112c.85 2.598 3.262 4.508 6.13 4.57a13.182 13.182 0 01-8.134 2.798c-.538 0-1.054-.024-1.57-.09A18.469 18.469 0 0010.064 29c12.072 0 18.672-10 18.672-18.668 0-.29-.01-.57-.024-.848A13.087 13.087 0 0032 6.078z"/></symbol><symbol id="icon-antenna-1" viewBox="0 0 32 32"><path fill="var(--color3, #212121)" d="M30.773 22.098l-8.443-8.505.937-4.615c.242.094.499.144.758.146h.006a2.159 2.159 0 10-2.008-1.435l-4.96.605L8.972.161a.534.534 0 00-.377-.16.532.532 0 00-.373.155L6.709 1.66a.534.534 0 000 .754l.814.826a14.943 14.943 0 002.519 17.663.513.513 0 00.146.098c-.034.18-.051.364-.052.547v6.187h-6.4a2.67 2.67 0 00-2.667 2.667v1.067c0 .295.239.533.533.533h24.533a.533.533 0 00.533-.533v-1.067a2.67 2.67 0 00-2.667-2.667h-6.4v-2.742a15.09 15.09 0 003.049.32 14.854 14.854 0 007.04-1.783l.818.823a.534.534 0 00.377.16.532.532 0 00.373-.155l1.513-1.504a.534.534 0 000-.754zM23.28 6.233a1.066 1.066 0 11.752 1.822h-.003a1.067 1.067 0 01-.747-1.823h-.002zm-1.256 3.505l-.598 2.946-1.175-1.182 1.774-1.763zm-.605-.902l-1.92 1.909-1.485-1.493 3.405-.415zM24.004 28.8a1.6 1.6 0 011.6 1.6v.533H2.137V30.4a1.6 1.6 0 011.6-1.6h20.267zm-7.467-2.133v1.067h-5.333v-1.067h5.333zM11.204 25.6v-4.053c0-1.294 1.196-2.347 2.667-2.347s2.667 1.053 2.667 2.347V25.6h-5.333zm6.4-1.696v-2.357c0-1.882-1.675-3.413-3.733-3.413a3.8 3.8 0 00-3.281 1.786A13.87 13.87 0 018.311 4.033l18.602 18.708a13.818 13.818 0 01-9.309 1.163zm11.289-.684L7.836 2.039l.755-.752 7.935 7.98c.004 0 .006.007.01.01l13.115 13.191-.757.752z"/><path fill="var(--color2, #2196f3)" d="M13.876 20.267h-.005a1.6 1.6 0 10-.004 3.2h.005a1.6 1.6 0 10.004-3.2zm.373 1.978a.534.534 0 01-.752-.756.534.534 0 01.373-.155.532.532 0 01.373.911h.005z"/></symbol><symbol id="icon-astronaut-1" viewBox="0 0 32 32"><path fill="var(--color2, #2196f3)" d="M31.974 4.524a.534.534 0 00-.43-.363l-1.91-.278-.855-1.731c-.179-.365-.777-.365-.956 0l-.855 1.731-1.91.278a.535.535 0 00-.296.91l1.383 1.348-.326 1.903c-.034.2.048.402.212.522a.53.53 0 00.562.04l1.709-.899 1.709.899a.536.536 0 00.775-.563l-.326-1.903 1.383-1.348a.536.536 0 00.135-.547zm-2.463 1.327a.534.534 0 00-.153.472l.191 1.114-1-.526a.533.533 0 00-.498 0l-1.001.526.191-1.114a.534.534 0 00-.153-.472l-.81-.789 1.119-.163a.532.532 0 00.402-.292l.5-1.013.5 1.013a.535.535 0 00.402.292l1.119.163-.809.789zM26.134 20.522h-1.067v1.067h1.067v-1.067zM26.134 22.656h-1.067v1.067h1.067v-1.067zM27.2 21.589h-1.067v1.067H27.2v-1.067zM25.067 21.589H24v1.067h1.067v-1.067zM22.4 26.389h-1.067v1.067H22.4v-1.067zM22.4 28.522h-1.067v1.067H22.4v-1.067zM23.467 27.456H22.4v1.067h1.067v-1.067zM21.333 27.456h-1.067v1.067h1.067v-1.067zM16 24.256h-1.067v1.067H16v-1.067zM16 26.389h-1.067v1.067H16v-1.067zM17.067 25.322H16v1.067h1.067v-1.067zM14.933 25.322h-1.067v1.067h1.067v-1.067zM5.867 6.122H4.8v1.067h1.067V6.122zM5.867 8.255H4.8v1.067h1.067V8.255z"/><path fill="var(--color2, #2196f3)" d="M6.933 7.189H5.866v1.067h1.067V7.189zM4.8 7.189H3.733v1.067H4.8V7.189z"/><path fill="var(--color3, #212121)" d="M24.715 14.159a1.775 1.775 0 00-1.188-.705 1.778 1.778 0 00-1.34.352l-1.252.96-1.898 1.417-1.358-.541c2.421-1.086 4.114-3.508 4.114-6.32 0-3.823-3.123-6.933-6.961-6.933s-6.961 3.11-6.961 6.933a6.86 6.86 0 001.12 3.758l-2.764-.024h-.005c-.009 0-.015.004-.023.005a.515.515 0 00-.155.031l-.038.013c-.006.003-.013.003-.019.006l-3.233 1.596-.001.001-1.893.911a.397.397 0 00-.063.035 1.779 1.779 0 00-.598 2.295c.22.429.595.745 1.056.889a1.776 1.776 0 001.378-.128l1.388-.738 2.264-1.169 1.357-.008L2.2 22.211l-.002.001-1.339 1.333c-.316.315-.49.732-.49 1.178s.174.863.49 1.179c.325.323.752.485 1.179.485s.854-.162 1.18-.485l1.314-1.309 1.741-1.3.901.897-1.762 1.754-.002.001-1.339 1.333c-.316.315-.49.732-.49 1.178s.174.863.49 1.179c.325.323.753.485 1.18.485s.855-.162 1.18-.485l3.482-3.467.001-.002 1.01-1-.004-.004c.006-.006.015-.009.022-.015l5.166-5.658 3.471.494a.52.52 0 00.262-.033c.018-.006.033-.015.05-.023.019-.01.039-.015.058-.027l3.213-2.133c.012-.008.018-.021.029-.029.013-.01.029-.014.041-.026l1.271-1.191c.662-.62.753-1.635.212-2.362zM2.13 17.77a.714.714 0 01-.558.052.717.717 0 01-.213-1.26l1.314-.632.449 1.312-.992.528zm3.498-1.828l-1.548.8-.439-1.283 2.027-1.001-.04 1.484zm15.099-6.62a5.79 5.79 0 01-.599 2.559l-4.181-1.899a1.863 1.863 0 00-.788-1.388l1.464-4.86c2.378.756 4.105 2.974 4.105 5.588zm-11.789 0c0-3.235 2.644-5.867 5.894-5.867.253 0 .5.021.745.052l-1.432 4.754c-.019-.001-.037-.006-.057-.006-1.033 0-1.873.837-1.873 1.867s.84 1.867 1.873 1.867c.694 0 1.294-.383 1.618-.945l3.862 1.755a5.894 5.894 0 01-4.737 2.39c-3.25 0-5.894-2.632-5.894-5.867zm5.956.8c0 .441-.362.8-.806.8s-.806-.359-.806-.8c0-.441.362-.8.806-.8s.806.359.806.8zM2.465 25.146a.608.608 0 01-.854.001.592.592 0 010-.844l.962-.958.851.848-.959.955zm3.214 3.734a.608.608 0 01-.855.001.592.592 0 010-.844l.963-.959.852.848-.96.955zm3.481-3.469l-.002.001-1.765 1.76-.852-.848 1.763-1.755.002-.001c.04-.04.065-.088.09-.135.007-.014.02-.026.026-.04.017-.041.019-.085.026-.129.003-.025.014-.047.014-.073 0-.036-.013-.07-.02-.106-.006-.032-.006-.065-.019-.095a.55.55 0 00-.091-.138c-.01-.012-.014-.027-.025-.038h-.001l-.001-.002-1.607-1.6c-.017-.017-.039-.024-.058-.038a.507.507 0 00-.087-.058.515.515 0 00-.093-.033.507.507 0 00-.103-.02.5.5 0 00-.095.005.53.53 0 00-.104.02.477.477 0 00-.094.045c-.02.011-.042.015-.061.029L4.23 23.486l-.901-.897 2.399-2.386 4.361 4.289-.928.919zm6.819-7.017c-.015-.002-.03.004-.045.003a.556.556 0 00-.3.075.492.492 0 00-.083.061c-.013.011-.028.017-.04.029l-4.698 5.146-4.328-4.257 2.833-2.818a.534.534 0 00-.379-.911v-.001l-2.219.013.028-1.607 3.104.027a6.947 6.947 0 004.981 2.101c.437 0 .864-.045 1.279-.123.04.032.079.065.13.085l2.41.96.331 1.644-3.003-.427zm4.041.178l-.313-1.558 1.446-1.08.947 1.257-2.08 1.381zm3.754-2.831l-.838.785-.931-1.236.831-.637a.735.735 0 01.543-.143.718.718 0 01.48.284.713.713 0 01-.085.947z"/><path fill="var(--color3, #212121)" d="M13.602 18.544l-2.143-2.133a.534.534 0 00-.753 0l-2.142 2.133a.537.537 0 000 .756l2.142 2.133a.536.536 0 00.753 0l2.143-2.133a.535.535 0 000-.756zm-2.519 1.759l-1.387-1.381 1.387-1.381 1.387 1.381-1.387 1.381zM17.164 5.071l-.258 1.036c.071.018 1.738.452 1.738 2.149h1.067c0-2.017-1.666-2.965-2.547-3.185zM19.711 9.322h-1.067v1.067h1.067V9.322z"/></symbol>
<symbol id="icon-person-black-18dp-1" viewBox="0 0 32 32"><path d="M16 16c2.947 0 5.333-2.387 5.333-5.333S18.946 5.334 16 5.334c-2.947 0-5.333 2.387-5.333 5.333S13.054 16 16 16zm0 2.667c-3.56 0-10.667 1.787-10.667 5.333v1.333c0 .733.6 1.333 1.333 1.333h18.667c.733 0 1.333-.6 1.333-1.333V24c0-3.547-7.107-5.333-10.667-5.333z"/></symbol>
<symbol id="icon-phone-black-18dp-1" viewBox="0 0 32 32"><path d="M24.882 19.773l-3.268-.373a2.561 2.561 0 00-2.11.733L17.137 22.5a19.357 19.357 0 01-8.478-8.478l2.38-2.38a2.561 2.561 0 00.733-2.11l-.373-3.242a2.575 2.575 0 00-2.56-2.277H6.613c-1.454 0-2.663 1.209-2.573 2.663.682 10.987 9.469 19.761 20.443 20.443 1.454.09 2.663-1.119 2.663-2.573V22.32a2.549 2.549 0 00-2.264-2.547z"/></symbol>
<symbol id="icon-email-black-18dp-1" viewBox="0 0 32 32"><path d="M26.667 5.333H5.334A2.663 2.663 0 002.681 8l-.013 16c0 1.467 1.2 2.667 2.667 2.667h21.333c1.467 0 2.667-1.2 2.667-2.667V8c0-1.467-1.2-2.667-2.667-2.667zM26.133 11l-9.427 5.893a1.346 1.346 0 01-1.413 0L5.866 11a1.132 1.132 0 111.2-1.92l8.933 5.587 8.933-5.587a1.132 1.132 0 111.2 1.92z"/></symbol>
<symbol id="icon-Vector" viewBox="0 0 32 32"><path d="M28.444 4.333v23.333H3.555V4.333h24.889zm0-3.333H3.555C1.599 1-.001 2.5-.001 4.333v23.333c0 1.833 1.6 3.333 3.556 3.333h24.889c1.956 0 3.556-1.5 3.556-3.333V4.333C32 2.5 30.4 1 28.444 1z"/></symbol>
<symbol id="icon-icon-check" viewBox="0 0 32 32"><path d="M4 1h24a4 4 0 014 4v22a4 4 0 01-4 4H4a4 4 0 01-4-4V5a4 4 0 014-4z"/><path stroke="var(--color5, #fff)" stroke-width=".4" d="M7.914 16.503l-.138-.131-2.067 1.958 7.282 6.947 15.298-14.594-2.053-1.959-13.245 12.623-5.077-4.844z"/></symbol>
<symbol id="icon-icon-check" viewBox="0 0 32 32"><path d="M4 1h24a4 4 0 014 4v22a4 4 0 01-4 4H4a4 4 0 01-4-4V5a4 4 0 014-4z"/><path stroke="var(--color5, #fff)" stroke-width=".4" d="M7.914 16.503l-.138-.131-2.067 1.958 7.282 6.947 15.298-14.594-2.053-1.959-13.245 12.623-5.077-4.844z"/></symbol>


<symbol id="icon-mobile-menu" viewBox="0 0 32 32"><path d="M6.4 11.733V9.6h19.2v2.133H6.4zm0 5.334h19.2v-2.133H6.4v2.133zm0 5.333h19.2v-2.133H6.4V22.4z"/></symbol>

</defs></svg>